<?xml version="1.0" encoding="UTF-8"?>
<svg width="308px" height="404px" viewBox="0 0 308 404" version="1.1" xmlns="http://www.w3.org/2000/svg" xmlns:xlink="http://www.w3.org/1999/xlink">
    <title>Group 9</title>
    <g id="Page-1" stroke="none" stroke-width="1" fill="none" fill-rule="evenodd">
        <g id="Group-9" transform="translate(1.344982, 1.151917)">
            <polygon id="Triangle" fill="#E3DFE9" points="79.1777842 44.186296 76.0646181 64.7607989 52.6550176 61.8480827"></polygon>
            <g id="lootbox_svg" transform="translate(43.295040, 145.858471)">
                <polygon id="Rectangle" fill="#4C3D49" fill-rule="nonzero" transform="translate(244.044878, 83.989612) scale(-1, 1) translate(-244.044878, -83.989612) " points="229.729778 65.4896116 258.359978 68.1601589 258.359978 102.489612 230.013988 97.5993336"></polygon>
                <path d="M258.359978,106.989612 L258.359978,110.989612 C251.3849,115.134449 244.8849,117.992964 238.859978,119.565158 C232.835056,121.137352 226.335056,121.671166 219.359978,121.1666 L219.359978,117.1666 C225.86921,117.876499 232.36921,117.38457 238.859978,115.690815 C245.350746,113.997059 251.850746,111.096658 258.359978,106.989612 Z M258.359978,93.9896116 L258.359978,97.9896116 C251.3849,102.134449 244.8849,104.992964 238.859978,106.565158 C232.835056,108.137352 226.335056,108.671166 219.359978,108.1666 L219.359978,104.1666 C225.86921,104.876499 232.36921,104.38457 238.859978,102.690815 C245.350746,100.997059 251.850746,98.0966576 258.359978,93.9896116 Z M258.359978,80.9896116 L258.359978,84.9896116 C251.3849,89.1344486 244.8849,91.9929636 238.859978,93.5651576 C232.835056,95.1373516 226.335056,95.6711656 219.359978,95.1665996 L219.359978,91.1665996 C225.86921,91.8764986 232.36921,91.3845696 238.859978,89.6908146 C245.350746,87.9970586 251.850746,85.0966576 258.359978,80.9896116 Z" id="Combined-Shape" fill="#1D141D" fill-rule="nonzero"></path>
                <path d="M224.900962,45.1548066 C231.501991,67.4201846 204.74469,101.039964 196.825179,123.847889 C185.321738,146.132073 176.563883,152.013151 169.165108,159.401388 C162.419105,165.093911 153.945957,170.60645 145.13671,175.462737 C118.784442,189.989992 98.1668736,198.881092 78.5803226,209.701468 C69.6892106,212.169618 63.4301666,212.697892 56.0027936,210.980318 C44.8433726,208.39971 41.3648188,202.491584 30.7187008,194.777978 C24.8556438,188.923272 221.697516,33.6422956 224.900962,45.1548066 Z" id="Rectangle" fill="#A54900" fill-rule="nonzero" transform="translate(128.264231, 128.264231) rotate(45.000000) translate(-128.264231, -128.264231) "></path>
                <path d="M249.964231,70.4442866 C249.964231,78.1034996 249.964231,84.2139986 249.964231,88.7757846 C254.228063,91.2449436 258.449257,93.5298136 262.627816,95.6303936 L262.627816,105.278913 C263.264177,118.891329 261.174898,129.399062 256.359978,136.802112 C250.47036,145.857536 241.855101,151.808276 230.514202,154.654333 L180.019837,171.42318 C166.579931,175.824334 156.526645,175.679811 149.859978,170.989612 C143.752771,166.69301 139.961959,152.734553 138.487541,129.11424 L155.915678,122.531693 L155.915678,98.4896116 L249.964231,70.4442866 Z" id="Rectangle" fill="#DB6E18" fill-rule="nonzero"></path>
                <polygon id="Rectangle" fill="#4C3D49" fill-rule="nonzero" points="40.5712865 70.6516556 43.7059676 98.4896116 15.3599778 93.5993336 15.3599775 69.5547751"></polygon>
                <path d="M35.0952979,112.964577 L35.0952979,116.964577 C31.5656724,117.205434 28.2764523,116.425872 25.2276377,114.625892 C22.1788231,112.825912 18.889603,109.721649 15.3599775,105.313103 L15.3599775,101.313103 C18.6538693,105.666246 21.9430894,108.812395 25.2276377,110.751549 C28.512186,112.690703 31.801406,113.428379 35.0952979,112.964577 Z M35.0952979,99.9645766 L35.0952979,103.964577 C31.5656724,104.205434 28.2764523,103.425872 25.2276377,101.625892 C22.1788231,99.8259116 18.889603,96.7216486 15.3599775,92.3131026 L15.3599775,88.3131026 C18.6538693,92.6662456 21.9430894,95.8123946 25.2276377,97.7515486 C28.512186,99.6907026 31.801406,100.428379 35.0952979,99.9645766 Z M35.0952979,86.9645766 L35.0952979,90.9645766 C31.5656724,91.2054336 28.2764523,90.4258716 25.2276377,88.6258916 C22.1788231,86.8259116 18.889603,83.7216486 15.3599775,79.3131026 L15.3599775,75.3131026 C18.6538693,79.6662456 21.9430894,82.8123946 25.2276377,84.7515486 C28.512186,86.6907026 31.801406,87.4283786 35.0952979,86.9645766 Z" id="Combined-Shape" fill="#1D141D" fill-rule="nonzero"></path>
                <path d="M119.646409,70.6516556 L119.646409,90.5452786 L134.129543,93.7848616 L134.129543,102.278913 C134.765905,115.891329 132.676626,126.399062 127.861706,133.802112 C121.972087,142.857536 113.356829,148.808276 102.015929,151.654333 L51.5215647,168.42318 C38.0816581,172.824334 28.0283717,172.679811 21.361705,167.989612 C15.254498,163.69301 11.9684666,153.685843 11.5036108,137.96811 L11.5036108,99.7150281 L119.646409,70.6516556 Z" id="Rectangle" fill="#E99135" fill-rule="nonzero" transform="translate(72.872292, 121.135377) scale(-1, 1) translate(-72.872292, -121.135377) "></path>
                <polygon id="Rectangle" fill="#C8AB5A" fill-rule="nonzero" transform="translate(74.735777, 85.481636) scale(-1, 1) translate(-74.735777, -85.481636) " points="26.1115761 96.6770636 123.337909 68.2482448 123.359978 75.3181079 29.111576 102.715028"></polygon>
                <g id="Group-2" transform="translate(171.941170, 37.680131)"></g>
                <g id="Group-4" transform="translate(151.245695, 120.625651)" fill="#A65916" fill-rule="nonzero" stroke="#933C00">
                    <rect id="Rectangle" transform="translate(9.114282, 38.363961) scale(-1, 1) rotate(53.000000) translate(-9.114282, -38.363961) " x="-1.38571797" y="34.8639613" width="21" height="7" rx="3.5"></rect>
                    <rect id="Rectangle" transform="translate(95.882050, 8.131728) rotate(45.000000) translate(-95.882050, -8.131728) " x="87.8820498" y="4.63172798" width="16" height="7" rx="3.5"></rect>
                </g>
                <g id="Group-4" transform="translate(68.259466, 137.053645) scale(-1, 1) translate(-68.259466, -137.053645) translate(16.252577, 112.625651)" fill="#A65916" fill-rule="nonzero" stroke="#933C00">
                    <rect id="Rectangle" transform="translate(9.114282, 38.363961) scale(-1, 1) rotate(53.000000) translate(-9.114282, -38.363961) " x="-1.38571797" y="34.8639613" width="21" height="7" rx="3.5"></rect>
                    <rect id="Rectangle" transform="translate(95.882050, 8.131728) rotate(45.000000) translate(-95.882050, -8.131728) " x="87.8820498" y="4.63172798" width="16" height="7" rx="3.5"></rect>
                </g>
                <g id="Group-6" transform="translate(118.359978, 94.677064)" fill-rule="nonzero">
                    <path d="M0,2.812548 C5.979289,-0.937516 31.495363,-0.937516 39,2.812548 L39.288024,26.92227 C31.043061,33.182455 24.11372,36.312548 18.5,36.312548 C12.886281,36.312548 6.719614,33.182455 0,26.92227 L0,2.812548 Z" id="Rectangle" fill="#4C3D49"></path>
                    <g id="Group-3" transform="translate(0.000000, 13.312548)" fill="#1D141D">
                        <path d="M0,0 C6.50923221,2.4084725 13.0092322,3.6127088 19.5,3.6127088 C25.9907678,3.6127088 32.4907678,2.4084725 39,0 L39,4 C32.0249221,6.3247014 25.5249221,7.4870521 19.5,7.4870521 C13.4750779,7.4870521 6.97507786,6.3247014 0,4 L0,0 Z" id="Rectangle"></path>
                    </g>
                </g>
            </g>
            <polygon id="Rectangle" fill="#C8AB5A" fill-rule="nonzero" points="199.465461 241.315877 293.655018 212.8381 293.655018 219.915949 200.655018 246.848083 200.655018 243.348083"></polygon>
            <g id="Group-4" transform="translate(20.245417, 46.085601)">
                <polygon id="Rectangle" fill="#D6B95D" points="159.9096 201.085973 273.4096 166.752499 261.828408 164.762482 161.537163 193.762482 69.8301774 169.262482 162.994812 151.569702 251.845563 167.662482 262.045639 164.762482 164.418901 144.762482 47.4339276 168.021115"></polygon>
                <polygon id="Rectangle" fill="#BBAF5C" points="161.537163 193.762482 69.8301774 169.262482 162.994812 151.569702 251.845563 167.662482"></polygon>
                <polygon id="Rectangle" fill="#A18E33" points="161.537163 193.762482 69.8301774 169.262482 162.994812 151.569702"></polygon>
                <g id="Group-2" transform="translate(141.409600, 142.762482)">
                    <ellipse id="Oval" fill="#6D5D6A" cx="19.5" cy="5.5" rx="19.5" ry="5.5"></ellipse>
                    <ellipse id="Oval" stroke="#1D141D" cx="19.5" cy="5.5" rx="14" ry="3"></ellipse>
                </g>
                <g id="Group-7" transform="translate(0.000000, 94.949448)" fill-rule="nonzero">
                    <polygon id="Rectangle" fill="#4C3D49" transform="translate(31.035163, 40.591796) scale(-1, 1) rotate(40.000000) translate(-31.035163, -40.591796) " points="16.7200628 15.5184519 45.3502628 19.3438304 45.0583665 65.66514 17.0042728 61.5134591"></polygon>
                    <path d="M47.4096004,33.8130334 L47.4096004,37.8130334 C40.4345224,41.9578704 33.9345224,44.8163854 27.9096004,46.3885794 C21.8846784,47.9607734 15.3846784,48.4945874 8.40960045,47.9900214 L8.40960045,43.9900214 C14.9188324,44.6999204 21.4188324,44.2079914 27.9096004,42.5142364 C34.4003684,40.8204804 40.9003684,37.9200794 47.4096004,33.8130334 Z M47.4096004,20.8130334 L47.4096004,24.8130334 C40.4345224,28.9578704 33.9345224,31.8163854 27.9096004,33.3885794 C21.8846784,34.9607734 15.3846784,35.4945874 8.40960045,34.9900214 L8.40960045,30.9900214 C14.9188324,31.6999204 21.4188324,31.2079914 27.9096004,29.5142364 C34.4003684,27.8204804 40.9003684,24.9200794 47.4096004,20.8130334 Z M47.4096004,7.8130334 L47.4096004,11.8130334 C40.4345224,15.9578704 33.9345224,18.8163854 27.9096004,20.3885794 C21.8846784,21.9607734 15.3846784,22.4945874 8.40960045,21.9900214 L8.40960045,17.9900214 C14.9188324,18.6999204 21.4188324,18.2079914 27.9096004,16.5142364 C34.4003684,14.8204804 40.9003684,11.9200794 47.4096004,7.8130334 Z" id="Combined-Shape" fill="#1D141D" transform="translate(27.909600, 27.993469) rotate(140.000000) translate(-27.909600, -27.993469) "></path>
                </g>
                <g id="Group-7" transform="translate(163.299732, 0.000000)" fill-rule="nonzero">
                    <polygon id="Rectangle" fill="#4C3D49" transform="translate(33.839907, 30.230861) scale(-1, 1) rotate(40.000000) translate(-33.839907, -30.230861) " points="18.7477798 9.97264262 54.4047326 8.73086123 50.1387049 51.2122001 13.2750808 51.7308612"></polygon>
                    <path d="M44.8898578,30.3903505 L44.8898578,33.7327663 C37.9147798,37.1962083 31.4147798,39.5847947 25.3898578,40.8985262 C19.3649358,42.2122577 12.8649358,42.6583148 5.88985782,42.2366974 L5.88985782,38.8942817 C12.3990898,39.4874761 18.8990898,39.0764183 25.3898578,37.66111 C31.8806258,36.2458008 38.3806258,33.8222143 44.8898578,30.3903505 Z M45.109868,19.7624817 L45.109868,23.1048975 C38.13479,26.5683395 31.63479,28.9569259 25.609868,30.2706574 C19.584946,31.5843889 13.084946,32.0304459 6.10986804,31.6088286 L6.10986804,28.2664129 C12.6191,28.8596073 19.1191,28.4485495 25.609868,27.0332412 C32.100636,25.617932 38.600636,23.1943455 45.109868,19.7624817 Z M45.3298783,9.13461292 L45.3298783,12.4770286 C38.3548003,15.9404707 31.8548003,18.3290571 25.8298783,19.6427886 C19.8049563,20.9565201 13.3049563,21.4025771 6.32987826,20.9809598 L6.32987826,17.6385441 C12.8391103,18.2317385 19.3391103,17.8206807 25.8298783,16.4053723 C32.3206463,14.9900632 38.8206463,12.5664767 45.3298783,9.13461292 Z" id="Combined-Shape" fill="#1D141D" transform="translate(25.609868, 25.762482) scale(-1, 1) rotate(-133.000000) translate(-25.609868, -25.762482) "></path>
                </g>
                <g id="Group-2" transform="translate(38.409600, 162.762482)">
                    <ellipse id="Oval" fill="#6D5D6A" cx="19.5" cy="5.5" rx="19.5" ry="5.5"></ellipse>
                    <ellipse id="Oval" stroke="#1D141D" cx="19.5" cy="5.5" rx="14" ry="3"></ellipse>
                </g>
                <g id="Group-2" transform="translate(242.409600, 159.762482)">
                    <ellipse id="Oval" fill="#6D5D6A" cx="19.5" cy="5.5" rx="19.5" ry="5.5"></ellipse>
                    <ellipse id="Oval" stroke="#1D141D" cx="19.5" cy="5.5" rx="14" ry="3"></ellipse>
                </g>
                <g id="Group-2" transform="translate(141.409600, 191.762482)">
                    <ellipse id="Oval" fill="#6D5D6A" cx="19.5" cy="5.5" rx="19.5" ry="5.5"></ellipse>
                    <ellipse id="Oval" stroke="#1D141D" cx="19.5" cy="5.5" rx="14" ry="3"></ellipse>
                </g>
            </g>
            <g id="Group-4" transform="translate(152.278233, 145.049242) scale(1, -1) rotate(36.000000) translate(-152.278233, -145.049242) translate(37.041132, 94.680056)">
                <g id="Group-5" transform="translate(0.000000, 0.000000)">
                    <polygon id="Rectangle" fill="#D6B95D" points="112.154119 100.738371 222.382604 48.4125195 211.363912 44.0313616 115.614905 89.1778383 32.4174172 53.8280149 117.330679 14.9865597 201.865935 50.4159091 230.474202 45.0134672 118.685599 -1.15342945e-14 11.4010218 48.4406988 14.0071928 62.9802997"></polygon>
                    <polygon id="Rectangle" fill="#BBAF5C" points="116.202691 89.9868553 117.788356 14.6757716 202.400248 50.1469708"></polygon>
                    <polygon id="Rectangle" fill="#A18E33" points="116.202691 89.9868553 28.6965194 53.2648489 117.696519 14.26698"></polygon>
                    <g id="Group-2" transform="translate(97.878060, 0.116667)">
                        <ellipse id="Oval" fill="#6D5D6A" cx="18.5" cy="9.5" rx="18.5" ry="9.5"></ellipse>
                        <ellipse id="Oval" stroke="#1D141D" cx="17.8015989" cy="9.38938413" rx="13.5" ry="5.5"></ellipse>
                    </g>
                    <g id="Group-2" transform="translate(0.000000, 44.035744)">
                        <ellipse id="Oval" fill="#6D5D6A" cx="18.5" cy="9.5" rx="18.5" ry="9.5"></ellipse>
                        <ellipse id="Oval" stroke="#1D141D" cx="17.8015989" cy="9.38938413" rx="13.5" ry="5.5"></ellipse>
                    </g>
                </g>
            </g>
            <path d="M72.8280127,50.1821391 C75.1321592,46.1748517 79.2959263,43.7217386 85.3193138,42.8227996 L164.89066,28.6907925 C173.869525,28.4887108 181.319382,29.4887108 187.240229,31.6907925 C193.161077,33.8928742 204.456155,41.3245029 221.125461,53.9856785 C215.720768,54.8129031 212.201373,55.8852589 210.567276,57.202746 C208.93318,58.520233 207.730475,59.6466441 206.959162,60.5819791 L229.846367,85.58642 L118.030817,109.003263 L76.2842325,65.8019555 C71.6759395,59.3960319 70.5238662,54.1894264 72.8280127,50.1821391 Z" id="Rectangle" fill="#D7C6DC"></path>
            <path d="M8.41881038,108.058945 C8.41881038,100.932507 10.722278,94.8234545 15.3292132,89.7317889 L28.6016561,72.3197928 C30.8069709,74.9740793 32.5483826,76.7250841 33.8258912,77.5728073 C35.1033998,78.4205304 37.0943623,79.1462368 39.7987787,79.7499266 L62.5469654,57.202746 L118.030817,144.104924 L74.7520618,189.898829 C71.1884314,193.903237 67.2607074,195.905441 62.9688898,195.905441 C58.6770723,195.905441 54.3538298,193.481801 49.9991626,188.634522 L12.1099379,124.485291 C9.64918621,120.660833 8.41881038,115.185384 8.41881038,108.058945 Z" id="Rectangle" fill="#9EA0C5" transform="translate(63.224814, 126.554093) scale(1, -1) translate(-63.224814, -126.554093) "></path>
            <g id="Group-2" transform="translate(232.985921, 91.501920) rotate(-38.000000) translate(-232.985921, -91.501920) translate(214.485921, 83.501920)">
                <ellipse id="Oval" fill="#6D5D6A" cx="18.5" cy="8" rx="18.5" ry="8"></ellipse>
                <ellipse id="Oval" stroke="#1D141D" cx="18.0954915" cy="8.29389263" rx="13.5" ry="4.5"></ellipse>
            </g>
            <g id="Group-3" transform="translate(177.151702, 80.464384) scale(1, -1) translate(-177.151702, -80.464384) translate(139.205971, 53.998180)" fill="#7F7F7F" fill-rule="nonzero" opacity="0.628208705" stroke="#575757" stroke-width="2.1">
                <path d="M60.7354249,46.4691355 C91.6774321,36.8515996 54.4650587,8.49858301 53.2245635,5.22210268 C38.6161381,10.7002567 11.4203752,21.6297715 2.89173676,24.6028497 C13.9905217,35.8092674 41.687701,52.3896359 60.7354249,46.4691355 Z" id="Oval" transform="translate(37.945731, 26.466204) scale(-1, 1) rotate(9.000000) translate(-37.945731, -26.466204) "></path>
            </g>
            <g id="Group-3" transform="translate(93.281857, 215.413246)" fill="#7F7F7F" fill-rule="nonzero" opacity="0.628208705" stroke="#575757" stroke-width="2.1">
                <path d="M21.5596933,41.3308052 C32.3016317,41.3308052 41.0096933,28.817164 41.0096933,13.3808052 C41.0096933,9.61809855 40.4922861,6.02905111 39.5541356,2.75257078 C28.5062087,8.23072476 9.23212153,17.7204065 2.78216055,20.6934847 C5.01899779,32.5831704 12.5784569,41.3308052 21.5596933,41.3308052 Z" id="Oval" transform="translate(21.895927, 22.041688) scale(-1, 1) rotate(9.000000) translate(-21.895927, -22.041688) "></path>
            </g>
            <path d="M78.8415505,169.744051 C89.5834889,169.744051 98.2915505,157.23041 98.2915505,141.794051 C98.2915505,138.031345 97.7741433,134.442297 96.8359929,131.165817 C85.7880659,136.643971 66.5139788,146.133653 60.0640178,149.106731 C62.300855,160.996417 69.8603141,169.744051 78.8415505,169.744051 Z" id="Oval" stroke="#575757" stroke-width="2.1" fill="#7F7F7F" fill-rule="nonzero" opacity="0.628208705" transform="translate(79.177784, 150.454934) scale(-1, -1) rotate(-31.000000) translate(-79.177784, -150.454934) "></path>
            <g id="Group-6" transform="translate(112.030702, 96.960017) rotate(138.000000) translate(-112.030702, -96.960017) translate(93.363420, 73.960017)" fill-rule="nonzero">
                <path d="M1.3117091e-15,3.56287882 C5.63107203,-1.18762627 29.6611617,-1.18762627 36.7287497,3.56287882 L37,34.1045861 C29.2352005,42.0348616 22.7094048,46 17.422612,46 C12.1358202,46 6.32828258,42.0348616 1.3117091e-15,34.1045861 L1.3117091e-15,3.56287882 Z" id="Rectangle" fill="#4C3D49"></path>
                <g id="Group-3" transform="translate(0.334565, 18.128428)" fill="#1D141D">
                    <path d="M1.39855487e-16,2.72832376e-15 C5.95534851,4.17854978 8.34480726,6.3300281 17.4554432,6.97736576 C26.5660792,7.62470342 31.3037039,6.32637769 37,2.72832376e-15 L37,4.80830099 C31.3814156,9.57105781 25.8021536,12.4364684 17.4554432,11.6346179 C9.1087329,10.8327675 4.7015229,9.04157122 1.39855487e-16,4.80830099 L1.39855487e-16,2.72832376e-15 Z" id="Rectangle"></path>
                </g>
            </g>
            <g id="Group-2" transform="translate(138.448535, 65.097871) rotate(-38.000000) translate(-138.448535, -65.097871) translate(80.943015, 27.415723)">
                <ellipse id="Oval" fill="#6D5D6A" cx="18.5" cy="67.3642975" rx="18.5" ry="8"></ellipse>
                <ellipse id="Oval" stroke="#1D141D" cx="18.0954915" cy="67.6581901" rx="13.5" ry="4.5"></ellipse>
                <g id="Group-4" transform="translate(69.950462, 28.712746) scale(1, -1) translate(-69.950462, -28.712746) translate(24.889885, -0.000000)" fill="#7A768D" fill-rule="nonzero">
                    <rect id="Rectangle" stroke="#5A4E54" transform="translate(9.114282, 46.933466) scale(-1, 1) rotate(53.000000) translate(-9.114282, -46.933466) " x="-1.38571797" y="43.4334659" width="21" height="7" rx="3.5"></rect>
                    <rect id="Rectangle" stroke="#5B4F55" transform="translate(83.050086, 7.071068) rotate(45.000000) translate(-83.050086, -7.071068) " x="76.5500859" y="3.57106781" width="13" height="7" rx="3.5"></rect>
                </g>
            </g>
            <g id="Group-8" transform="translate(45.547624, 114.412116) scale(-1, -1) rotate(-45.000000) translate(-45.547624, -114.412116) translate(-0.448858, 95.994530)" fill="#707291" fill-rule="nonzero">
                <rect id="Rectangle" stroke="#070709" transform="translate(9.114282, 26.343146) scale(-1, 1) rotate(53.000000) translate(-9.114282, -26.343146) " x="-1.38571797" y="22.843146" width="21" height="7" rx="3.5"></rect>
                <rect id="Rectangle" stroke="#000000" transform="translate(83.861234, 8.131728) rotate(45.000000) translate(-83.861234, -8.131728) " x="75.8612345" y="4.63172798" width="16" height="7" rx="3.5"></rect>
            </g>
        </g>
    </g>
</svg>