<?xml version="1.0" encoding="UTF-8"?>
<svg width="511px" height="509px" viewBox="0 0 511 509" version="1.1" xmlns="http://www.w3.org/2000/svg" xmlns:xlink="http://www.w3.org/1999/xlink">
    <title>Group 14</title>
    <g id="Page-1" stroke="none" stroke-width="1" fill="none" fill-rule="evenodd">
        <g id="Group-14" transform="translate(1.875806, 0.471118)">
            <g id="Group-13" transform="translate(0.000000, 15.003504)">
                <polygon id="Rectangle" fill="#4C3D49" fill-rule="nonzero" transform="translate(55.055087, 91.042490) scale(-1, 1) rotate(40.000000) translate(-55.055087, -91.042490) " points="36.0176303 69.9001692 76.0615275 76.8596166 73.4849029 111.533469 34.0486473 112.184811"></polygon>
                <path d="M103.968791,160.318391 C106.272937,156.311104 114.353778,156.028915 128.211312,159.471824 L211.283702,180.880563 L245.464558,210.698081 C233.30556,207.255159 230.217166,209.022884 236.199375,216.001255 C239.354963,219.682313 244.732308,226.14562 252.331412,235.391174 L245.319567,239.407738 L159.477395,224.698441 C157.467015,222.855037 155.88232,220.904377 154.723311,218.846462 C149.872829,210.234042 139.288696,205.41518 135.290435,202.635966 C129.730576,198.771276 124.754176,194.375755 120.361233,189.449403 L107.42501,175.938208 C102.816717,169.532284 101.664644,164.325679 103.968791,160.318391 Z" id="Rectangle" fill="#D7C6DC" transform="translate(177.574065, 198.246495) scale(1, -1) rotate(2.000000) translate(-177.574065, -198.246495) "></path>
                <path d="M73.6893898,114.969375 L77.919522,111.752829 C73.0510642,103.959359 67.7269227,97.5280887 62.0771316,92.4703934 C56.6945195,87.4360732 50.2505941,82.9912982 42.8396377,79.1443171 L39.3288662,82.4237998 C46.5123192,85.8229212 52.9485915,90.22947 58.6202971,95.6419235 C64.6020944,101.081507 69.691622,107.529809 73.6893898,114.969375 Z" id="Combined-Shape" fill="#1D141D" fill-rule="nonzero" transform="translate(58.624194, 97.056846) scale(-1, -1) translate(-58.624194, -97.056846) "></path>
                <g id="Group-9" transform="translate(0.000000, 79.528641)">
                    <path d="M114.46588,133.183033 C109.33859,142.941045 106.580663,149.781163 106.192101,153.703389 C105.803538,157.625614 107.594572,160.545522 111.565203,162.463114 L76.7344508,150.111292 L114.46588,133.183033 Z" id="Triangle" fill="#E3DFE9"></path>
                    <path d="M5.12969573,46.3909545 C5.12969573,37.7592427 8.63915701,30.3598135 15.6580796,24.1926671 L28.9793631,9.50960954 C32.339283,12.7245444 34.9924208,14.845403 36.9387763,15.8721854 C38.8851319,16.8989678 41.9184742,17.7779607 46.0388033,18.5091641 L61.5796565,0 L135.163003,82.7221537 C125.996944,93.1259469 119.479157,100.804408 115.609641,105.757536 C111.740125,110.710664 115.078309,117.641096 125.624194,126.548829 L106.192101,145.517366 C100.762711,150.3676 94.7786048,152.792717 88.2397815,152.792717 C81.7009583,152.792717 75.1142576,149.857148 68.4796793,143.986008 L10.7533341,66.286935 C7.00424187,61.6546598 5.12969573,55.0226663 5.12969573,46.3909545 Z" id="Rectangle" fill="#9EA0C5"></path>
                    <path d="M98.9187932,64.7021232 C113.232046,57.2646945 113.466293,38.7611701 107.250271,25.9472778 C94.832045,31.4254318 71.294107,44.6082487 64.0441429,47.5813269 C74.5754232,73.5227728 90.0051023,69.3338403 98.9187932,64.7021232 Z" id="Oval" stroke="#575757" stroke-width="2.1" fill="#7F7F7F" fill-rule="nonzero" opacity="0.628208705" transform="translate(87.585710, 47.054365) scale(-1, 1) rotate(-22.000000) translate(-87.585710, -47.054365) "></path>
                    <g id="Group-6" transform="translate(125.348062, 103.748107) scale(1, -1) rotate(138.000000) translate(-125.348062, -103.748107) translate(106.476490, 75.748107)" fill-rule="nonzero">
                        <path d="M1.35860366e-14,4.33741769 C5.63107203,-1.4458059 29.6611617,-1.4458059 36.7287497,4.33741769 L37,41.5186266 C29.2352005,51.172875 22.7094048,56 17.422612,56 C12.1358202,56 6.32828258,51.172875 1.35860366e-14,41.5186266 L1.35860366e-14,4.33741769 Z" id="Rectangle" fill="#4C3D49"></path>
                        <g id="Group-3" transform="translate(0.743145, 21.669131)" fill="#1D141D">
                            <path d="M-1.95625681e-14,-6.43272221e-15 C5.95534851,4.97086211 8.34480726,7.53029125 17.4554432,8.30037331 C26.5660792,9.07045537 31.3037039,7.52594867 37,-6.43272221e-15 L37,5.72002308 C31.3814156,11.3858662 25.8021536,14.7945992 17.4554432,13.8407066 C9.1087329,12.8868139 4.7015229,10.7559814 -1.95625681e-14,5.72002308 L-1.95625681e-14,-6.43272221e-15 Z" id="Rectangle"></path>
                        </g>
                    </g>
                    <g id="Group-8" transform="translate(51.798071, 88.754548) scale(-1, -1) rotate(-45.000000) translate(-51.798071, -88.754548) translate(35.635546, 31.663538)" fill="#707291" fill-rule="nonzero">
                        <rect id="Rectangle" stroke="#070709" transform="translate(21.773123, 9.003305) scale(-1, 1) rotate(36.000000) translate(-21.773123, -9.003305) " x="11.2731232" y="5.50330463" width="21" height="7" rx="3.5"></rect>
                        <rect id="Rectangle" stroke="#000000" transform="translate(8.131728, 106.050292) rotate(45.000000) translate(-8.131728, -106.050292) " x="0.131727984" y="102.550292" width="16" height="7" rx="3.5"></rect>
                    </g>
                </g>
                <g id="Group-7" transform="translate(49.624194, 91.525378) scale(1, -1) translate(-49.624194, -91.525378) translate(21.124194, 56.525378)"></g>
                <g id="Group-4" transform="translate(158.185072, 113.161875) scale(-1, -1) rotate(36.000000) translate(-158.185072, -113.161875) translate(48.433135, 53.025555)">
                    <g id="Group-5" transform="translate(0.000000, -0.000000)">
                        <polygon id="Rectangle" fill="#D6B95D" points="127.628145 116.404945 142.395052 114.555596 217.550543 44.4277695 219.503873 35.3487887 198.337889 42.9117885 129.531276 108.971603 26.9400575 86.0492683 90.2987407 17.4521663 196.904638 40.9390881 216.02562 37.875888 210.876121 30.7882114 88.9296701 3.12332502 76.7714465 9.38938413 11.4010218 80.9059437 14.0071928 95.4455446 113.482105 118.663612"></polygon>
                        <path d="M124.368771,111.574824 C119.637578,124.771779 118.314853,122.951205 120.400596,106.1131 C122.486339,89.2749955 127.306411,62.8616567 134.860812,26.8730837 L203.108898,39.3960725 C171.732182,70.0499294 148.448499,92.3392678 133.25785,106.264088 C118.067201,120.188908 115.104174,121.959153 124.368771,111.574824 Z" id="Rectangle" fill="#BBAF5C"></path>
                        <polygon id="Rectangle" fill="#A18E33" points="124.223449 107.972202 26.9400575 86.0492683 89.1534125 16.5649546 135.347883 27.5434794"></polygon>
                        <g id="Group-2" transform="translate(72.969848, 0.000000)">
                            <ellipse id="Oval" fill="#6D5D6A" cx="18.5" cy="9.5" rx="18.5" ry="9.5"></ellipse>
                            <ellipse id="Oval" stroke="#1D141D" cx="17.8015989" cy="9.38938413" rx="13.5" ry="5.5"></ellipse>
                        </g>
                        <g id="Group-2" transform="translate(-0.000000, 76.500989)">
                            <ellipse id="Oval" fill="#6D5D6A" cx="18.5" cy="9.5" rx="18.5" ry="9.5"></ellipse>
                            <ellipse id="Oval" stroke="#1D141D" cx="17.8015989" cy="9.38938413" rx="13.5" ry="5.5"></ellipse>
                        </g>
                    </g>
                </g>
                <g id="Group-2" transform="translate(176.796784, 62.027298) scale(-1, 1) rotate(-38.000000) translate(-176.796784, -62.027298) translate(158.296784, 54.027298)">
                    <ellipse id="Oval" fill="#6D5D6A" cx="18.5" cy="8" rx="18.5" ry="8"></ellipse>
                    <ellipse id="Oval" stroke="#1D141D" cx="18.0954915" cy="8.29389263" rx="13.5" ry="4.5"></ellipse>
                </g>
                <g id="Group-12" transform="translate(69.860783, 75.198624) rotate(38.000000) translate(-69.860783, -75.198624) translate(51.360783, 66.198624)">
                    <ellipse id="Oval" fill="#6D5D6A" cx="18.5" cy="9" rx="18.5" ry="9"></ellipse>
                    <ellipse id="Oval" stroke="#1D141D" cx="19.2018361" cy="8.91382536" rx="13.5" ry="5"></ellipse>
                </g>
            </g>
            <g id="Group-2" transform="translate(254.429248, 253.874090) scale(-1, 1) rotate(-36.000000) translate(-254.429248, -253.874090) translate(72.321462, 72.377508)">
                <g id="Group-9" transform="translate(182.107786, 181.496582) scale(-1, 1) rotate(-37.000000) translate(-182.107786, -181.496582) translate(50.738164, 53.232351)">
                    <g id="lootbox_svg" transform="translate(0.000000, 0.000000)">
                        <polygon id="Rectangle" fill="#4C3D49" fill-rule="nonzero" transform="translate(244.044878, 83.989612) scale(-1, 1) translate(-244.044878, -83.989612) " points="229.729778 65.4896116 258.359978 68.1601589 258.359978 102.489612 230.013988 97.5993336"></polygon>
                        <path d="M258.359978,106.989612 L258.359978,110.989612 C251.3849,115.134449 244.8849,117.992964 238.859978,119.565158 C232.835056,121.137352 226.335056,121.671166 219.359978,121.1666 L219.359978,117.1666 C225.86921,117.876499 232.36921,117.38457 238.859978,115.690815 C245.350746,113.997059 251.850746,111.096658 258.359978,106.989612 Z M258.359978,93.9896116 L258.359978,97.9896116 C251.3849,102.134449 244.8849,104.992964 238.859978,106.565158 C232.835056,108.137352 226.335056,108.671166 219.359978,108.1666 L219.359978,104.1666 C225.86921,104.876499 232.36921,104.38457 238.859978,102.690815 C245.350746,100.997059 251.850746,98.0966576 258.359978,93.9896116 Z M258.359978,80.9896116 L258.359978,84.9896116 C251.3849,89.1344486 244.8849,91.9929636 238.859978,93.5651576 C232.835056,95.1373516 226.335056,95.6711656 219.359978,95.1665996 L219.359978,91.1665996 C225.86921,91.8764986 232.36921,91.3845696 238.859978,89.6908146 C245.350746,87.9970586 251.850746,85.0966576 258.359978,80.9896116 Z" id="Combined-Shape" fill="#1D141D" fill-rule="nonzero"></path>
                        <path d="M224.900962,45.1548066 C231.501991,67.4201846 204.74469,101.039964 196.825179,123.847889 C185.321738,146.132073 176.563883,152.013151 169.165108,159.401388 C162.419105,165.093911 153.945957,170.60645 145.13671,175.462737 C118.784442,189.989992 98.1668736,198.881092 78.5803226,209.701468 C69.6892106,212.169618 63.4301666,212.697892 56.0027936,210.980318 C44.8433726,208.39971 41.3648188,202.491584 30.7187008,194.777978 C24.8556438,188.923272 221.697516,33.6422956 224.900962,45.1548066 Z" id="Rectangle" fill="#A54900" fill-rule="nonzero" transform="translate(128.264231, 128.264231) rotate(45.000000) translate(-128.264231, -128.264231) "></path>
                        <path d="M249.964231,70.4442866 C249.964231,78.1034996 249.964231,84.2139986 249.964231,88.7757846 C254.228063,91.2449436 258.449257,93.5298136 262.627816,95.6303936 L262.627816,105.278913 C263.264177,118.891329 261.174898,129.399062 256.359978,136.802112 C250.47036,145.857536 241.855101,151.808276 230.514202,154.654333 L180.019837,171.42318 C166.579931,175.824334 156.526645,175.679811 149.859978,170.989612 C143.752771,166.69301 139.961959,152.734553 138.487541,129.11424 L155.915678,122.531693 L155.915678,98.4896116 L249.964231,70.4442866 Z" id="Rectangle" fill="#DB6E18" fill-rule="nonzero"></path>
                        <polygon id="Rectangle" fill="#4C3D49" fill-rule="nonzero" points="40.5712865 70.6516556 43.7059676 98.4896116 15.3599778 93.5993336 15.3599775 69.5547751"></polygon>
                        <path d="M35.0952979,112.964577 L35.0952979,116.964577 C31.5656724,117.205434 28.2764523,116.425872 25.2276377,114.625892 C22.1788231,112.825912 18.889603,109.721649 15.3599775,105.313103 L15.3599775,101.313103 C18.6538693,105.666246 21.9430894,108.812395 25.2276377,110.751549 C28.512186,112.690703 31.801406,113.428379 35.0952979,112.964577 Z M35.0952979,99.9645766 L35.0952979,103.964577 C31.5656724,104.205434 28.2764523,103.425872 25.2276377,101.625892 C22.1788231,99.8259116 18.889603,96.7216486 15.3599775,92.3131026 L15.3599775,88.3131026 C18.6538693,92.6662456 21.9430894,95.8123946 25.2276377,97.7515486 C28.512186,99.6907026 31.801406,100.428379 35.0952979,99.9645766 Z M35.0952979,86.9645766 L35.0952979,90.9645766 C31.5656724,91.2054336 28.2764523,90.4258716 25.2276377,88.6258916 C22.1788231,86.8259116 18.889603,83.7216486 15.3599775,79.3131026 L15.3599775,75.3131026 C18.6538693,79.6662456 21.9430894,82.8123946 25.2276377,84.7515486 C28.512186,86.6907026 31.801406,87.4283786 35.0952979,86.9645766 Z" id="Combined-Shape" fill="#1D141D" fill-rule="nonzero"></path>
                        <path d="M119.646409,70.6516556 L119.646409,90.5452786 L134.129543,93.7848616 L134.129543,102.278913 C134.765905,115.891329 132.676626,126.399062 127.861706,133.802112 C121.972087,142.857536 113.356829,148.808276 102.015929,151.654333 L51.5215647,168.42318 C38.0816581,172.824334 28.0283717,172.679811 21.361705,167.989612 C15.254498,163.69301 11.9684666,153.685843 11.5036108,137.96811 L11.5036108,99.7150281 L119.646409,70.6516556 Z" id="Rectangle" fill="#E99135" fill-rule="nonzero" transform="translate(72.872292, 121.135377) scale(-1, 1) translate(-72.872292, -121.135377) "></path>
                        <polygon id="Rectangle" fill="#C8AB5A" fill-rule="nonzero" transform="translate(74.735777, 85.481636) scale(-1, 1) translate(-74.735777, -85.481636) " points="26.1115761 96.6770636 123.337909 68.2482448 123.359978 75.3181079 29.111576 102.715028"></polygon>
                        <g id="Group-2" transform="translate(171.941170, 37.680131)"></g>
                        <g id="Group-4" transform="translate(151.245695, 120.625651)" fill="#A65916" fill-rule="nonzero" stroke="#933C00">
                            <rect id="Rectangle" transform="translate(9.114282, 38.363961) scale(-1, 1) rotate(53.000000) translate(-9.114282, -38.363961) " x="-1.38571797" y="34.8639613" width="21" height="7" rx="3.5"></rect>
                            <rect id="Rectangle" transform="translate(95.882050, 8.131728) rotate(45.000000) translate(-95.882050, -8.131728) " x="87.8820498" y="4.63172798" width="16" height="7" rx="3.5"></rect>
                        </g>
                        <g id="Group-4" transform="translate(68.259466, 137.053645) scale(-1, 1) translate(-68.259466, -137.053645) translate(16.252577, 112.625651)" fill="#A65916" fill-rule="nonzero" stroke="#933C00">
                            <rect id="Rectangle" transform="translate(9.114282, 38.363961) scale(-1, 1) rotate(53.000000) translate(-9.114282, -38.363961) " x="-1.38571797" y="34.8639613" width="21" height="7" rx="3.5"></rect>
                            <rect id="Rectangle" transform="translate(95.882050, 8.131728) rotate(45.000000) translate(-95.882050, -8.131728) " x="87.8820498" y="4.63172798" width="16" height="7" rx="3.5"></rect>
                        </g>
                        <g id="Group-6" transform="translate(118.359978, 94.677064)" fill-rule="nonzero">
                            <path d="M0,2.812548 C5.979289,-0.937516 31.495363,-0.937516 39,2.812548 L39.288024,26.92227 C31.043061,33.182455 24.11372,36.312548 18.5,36.312548 C12.886281,36.312548 6.719614,33.182455 0,26.92227 L0,2.812548 Z" id="Rectangle" fill="#4C3D49"></path>
                            <g id="Group-3" transform="translate(0.000000, 13.312548)" fill="#1D141D">
                                <path d="M0,0 C6.50923221,2.4084725 13.0092322,3.6127088 19.5,3.6127088 C25.9907678,3.6127088 32.4907678,2.4084725 39,0 L39,4 C32.0249221,6.3247014 25.5249221,7.4870521 19.5,7.4870521 C13.4750779,7.4870521 6.97507786,6.3247014 0,4 L0,0 Z" id="Rectangle"></path>
                            </g>
                        </g>
                    </g>
                    <polygon id="Rectangle" fill="#C8AB5A" fill-rule="nonzero" points="156.17042 95.4574055 250.359978 66.9796286 250.359978 74.0574776 157.359978 100.989612 157.359978 97.4896116"></polygon>
                    <g id="Group-4" transform="translate(15.359978, 42.989612)">
                        <polygon id="Rectangle" fill="#D6B95D" points="121.5 58.323491 235 23.990017 223.418808 22 123.127563 51 31.4205769 26.5 124.585212 8.80722067 213.435963 24.9 223.636039 22 126.0093 2 9.0243272 25.2586331"></polygon>
                        <polygon id="Rectangle" fill="#BBAF5C" points="123.127563 51 31.4205769 26.5 124.585212 8.80722067 213.435963 24.9"></polygon>
                        <polygon id="Rectangle" fill="#A18E33" points="123.127563 51 31.4205769 26.5 124.585212 8.80722067"></polygon>
                        <g id="Group-2" transform="translate(103.000000, -0.000000)">
                            <ellipse id="Oval" fill="#6D5D6A" cx="19.5" cy="5.5" rx="19.5" ry="5.5"></ellipse>
                            <ellipse id="Oval" stroke="#1D141D" cx="19.5" cy="5.5" rx="14" ry="3"></ellipse>
                        </g>
                        <g id="Group-2" transform="translate(0.000000, 20.000000)">
                            <ellipse id="Oval" fill="#6D5D6A" cx="19.5" cy="5.5" rx="19.5" ry="5.5"></ellipse>
                            <ellipse id="Oval" stroke="#1D141D" cx="19.5" cy="5.5" rx="14" ry="3"></ellipse>
                        </g>
                        <g id="Group-2" transform="translate(204.000000, 17.000000)">
                            <ellipse id="Oval" fill="#6D5D6A" cx="19.5" cy="5.5" rx="19.5" ry="5.5"></ellipse>
                            <ellipse id="Oval" stroke="#1D141D" cx="19.5" cy="5.5" rx="14" ry="3"></ellipse>
                        </g>
                        <g id="Group-2" transform="translate(103.000000, 49.000000)">
                            <ellipse id="Oval" fill="#6D5D6A" cx="19.5" cy="5.5" rx="19.5" ry="5.5"></ellipse>
                            <ellipse id="Oval" stroke="#1D141D" cx="19.5" cy="5.5" rx="14" ry="3"></ellipse>
                        </g>
                    </g>
                    <g id="Group-3" transform="translate(49.986817, 69.554775)" fill="#7F7F7F" fill-rule="nonzero" opacity="0.628208705" stroke="#575757" stroke-width="2.1">
                        <path d="M21.5596933,41.3308052 C32.3016317,41.3308052 41.0096933,28.817164 41.0096933,13.3808052 C41.0096933,9.61809855 40.4922861,6.02905111 39.5541356,2.75257078 C28.5062087,8.23072476 9.23212153,17.7204065 2.78216055,20.6934847 C5.01899779,32.5831704 12.5784569,41.3308052 21.5596933,41.3308052 Z" id="Oval" transform="translate(21.895927, 22.041688) scale(-1, 1) rotate(9.000000) translate(-21.895927, -22.041688) "></path>
                    </g>
                </g>
            </g>
        </g>
    </g>
</svg>