<?xml version="1.0" encoding="UTF-8"?>
<svg width="394px" height="395px" viewBox="0 0 394 395" version="1.1" xmlns="http://www.w3.org/2000/svg" xmlns:xlink="http://www.w3.org/1999/xlink">
    <title>Group 5</title>
    <g id="Page-1" stroke="none" stroke-width="1" fill="none" fill-rule="evenodd">
        <g id="Group-5" transform="translate(0.650379, 0.548814)">
            <g id="lootbox_svg">
                <polygon id="Rectangle" fill="#4C3D49" fill-rule="nonzero" transform="translate(299.707516, 208.701186) scale(-1, 1) translate(-299.707516, -208.701186) " points="284.349621 177.451186 315.065411 184.408318 312.695611 239.951186 284.349621 235.060908"></polygon>
                <path d="M315.349621,217.451186 L315.349621,221.451186 C308.374543,225.596023 301.874543,228.454538 295.849621,230.026732 C289.824699,231.598926 283.324699,232.13274 276.349621,231.628174 L276.349621,227.628174 C282.858853,228.338073 289.358853,227.846144 295.849621,226.152389 C302.340389,224.458633 308.840389,221.558232 315.349621,217.451186 Z M315.349621,204.451186 L315.349621,208.451186 C308.374543,212.596023 301.874543,215.454538 295.849621,217.026732 C289.824699,218.598926 283.324699,219.13274 276.349621,218.628174 L276.349621,214.628174 C282.858853,215.338073 289.358853,214.846144 295.849621,213.152389 C302.340389,211.458633 308.840389,208.558232 315.349621,204.451186 Z M315.349621,191.451186 L315.349621,195.451186 C308.374543,199.596023 301.874543,202.454538 295.849621,204.026732 C289.824699,205.598926 283.324699,206.13274 276.349621,205.628174 L276.349621,201.628174 C282.858853,202.338073 289.358853,201.846144 295.849621,200.152389 C302.340389,198.458633 308.840389,195.558232 315.349621,191.451186 Z" id="Combined-Shape" fill="#1D141D"></path>
                <path d="M123.522187,107.279688 C129.149235,101.660655 136.020574,96.7739886 144.136205,92.6196902 L212.197158,60.0637959 C220.904716,56.816187 228.076499,56.9466125 233.712507,60.4550726 C241.380732,65.228604 249.66118,72.594514 258.55385,82.5528025 C248.280971,126.933436 246.456776,152.373548 253.081268,158.87314 C276.877449,182.220662 331.046206,155.674018 334.249652,167.186529 C340.850681,189.451907 311.97206,223.778793 304.052549,246.586718 C292.549108,268.870902 283.791253,274.75198 276.392478,282.140217 C269.646475,287.83274 261.173327,293.345279 252.36408,298.201566 C226.011812,312.728821 205.394244,321.619921 185.807693,332.440297 C176.916581,334.908447 170.657537,335.436721 163.230164,333.719147 C152.070743,331.138539 148.592189,325.230413 137.946071,317.516807 C132.083014,311.662101 161.313284,262.312403 149.999691,251.014924 C144.095192,245.118835 120.962091,248.198128 80.6003866,260.252802 C69.1098779,248.046319 61.8768848,237.808381 58.9014073,229.538989 C55.9259299,221.269596 56.904598,212.864562 61.8374117,204.323888 L108.274147,126.69026 C110.057682,122.119765 115.140362,115.649575 123.522187,107.279688 Z" id="Rectangle" fill="#E5DEEB" fill-rule="nonzero" transform="translate(196.222132, 196.222132) rotate(45.000000) translate(-196.222132, -196.222132) "></path>
                <path d="M281.890605,182.616381 C288.491634,204.881759 261.734333,238.501538 253.814822,261.309463 C242.311381,283.593647 233.553526,289.474725 226.154751,296.862962 C219.408748,302.555485 210.9356,308.068024 202.126353,312.924311 C175.774085,327.451566 155.156517,336.342666 135.569966,347.163042 C126.678854,349.631192 120.41981,350.159466 112.992437,348.441892 C101.833016,345.861284 98.3544622,339.953158 87.7083442,332.239552 C81.8452872,326.384846 278.687159,171.10387 281.890605,182.616381 Z" id="Rectangle" fill="#A54900" fill-rule="nonzero" transform="translate(185.253874, 265.725805) rotate(45.000000) translate(-185.253874, -265.725805) "></path>
                <path d="M206.849621,164.451186 C210.516288,159.405613 218.787285,154.518619 231.662613,149.790203 L287.550941,134.960109 C298.92678,132.108673 307.52634,133.605699 313.349621,139.451186 C318.215179,144.335298 320.304458,153.567872 319.617459,167.148907 L319.617459,176.983027 C317.332125,178.59041 313.11093,182.246463 306.953874,187.951186 C306.953874,199.04667 306.953874,210.357859 306.953874,226.237359 C311.217706,228.706518 315.4389,230.991388 319.617459,233.091968 L319.617459,242.740487 C320.25382,256.352903 318.164541,266.860636 313.349621,274.263686 C307.460003,283.31911 298.844744,289.26985 287.503845,292.115907 L237.00948,308.884754 C223.569574,313.285908 213.516288,313.141385 206.849621,308.451186 C200.742414,304.154584 196.951602,292.758751 195.477184,274.263686 L195.477184,199.04667 C196.142922,185.499726 199.933735,173.967898 206.849621,164.451186 Z" id="Rectangle" fill="#D6C4DE" fill-rule="nonzero"></path>
                <path d="M306.953874,207.905861 C306.953874,215.565074 306.953874,221.675573 306.953874,226.237359 C311.217706,228.706518 315.4389,230.991388 319.617459,233.091968 L319.617459,242.740487 C320.25382,256.352903 318.164541,266.860636 313.349621,274.263686 C307.460003,283.31911 298.844744,289.26985 287.503845,292.115907 L237.00948,308.884754 C223.569574,313.285908 213.516288,313.141385 206.849621,308.451186 C200.742414,304.154584 196.951602,290.196127 195.477184,266.575814 L212.905321,259.993267 L212.905321,235.951186 L306.953874,207.905861 Z" id="Rectangle" fill="#DB6E18" fill-rule="nonzero"></path>
                <path d="M180.108025,85.2864535 C185.72621,79.6682691 192.586725,74.7823417 200.689572,70.628671 L262.649804,42.7863415 C270.192276,38.0722963 275.665587,36.9459436 279.069736,39.4072835 C281.183782,40.9358261 281.487285,44.5391612 279.980246,50.2172887 L241.566121,116.195926 C236.265407,127.153494 230.57751,135.669819 224.502428,141.744901 C215.992886,150.254442 209.122822,155.477218 203.892236,157.413228 L127.945962,197.289173 C122.996214,199.410493 119.446324,199.396136 117.296289,197.246102 C114.84609,194.795903 115.254133,189.819199 118.520417,182.31599 L164.884005,104.694092 C166.66473,100.124288 171.739403,93.6550753 180.108025,85.2864535 Z" id="Rectangle" fill="#D6C5DC" fill-rule="nonzero" transform="translate(198.321019, 118.505149) rotate(45.000000) translate(-198.321019, -118.505149) "></path>
                <polygon id="Rectangle" fill="#4C3D49" fill-rule="nonzero" points="72.3496212 173.451186 103.065411 180.408318 100.695611 235.951186 72.3496212 231.060908"></polygon>
                <path d="M92.0849413,222.426151 L92.0849413,226.426151 C88.5553158,226.667008 85.2660957,225.887446 82.2172811,224.087466 C79.1684665,222.287486 75.8792464,219.183223 72.3496209,214.774677 L72.3496209,210.774677 C75.6435127,215.12782 78.9327328,218.273969 82.2172811,220.213123 C85.5018294,222.152277 88.7910494,222.889953 92.0849413,222.426151 Z M92.0849413,209.426151 L92.0849413,213.426151 C88.5553158,213.667008 85.2660957,212.887446 82.2172811,211.087466 C79.1684665,209.287486 75.8792464,206.183223 72.3496209,201.774677 L72.3496209,197.774677 C75.6435127,202.12782 78.9327328,205.273969 82.2172811,207.213123 C85.5018294,209.152277 88.7910494,209.889953 92.0849413,209.426151 Z M92.0849413,196.426151 L92.0849413,200.426151 C88.5553158,200.667008 85.2660957,199.887446 82.2172811,198.087466 C79.1684665,196.287486 75.8792464,193.183223 72.3496209,188.774677 L72.3496209,184.774677 C75.6435127,189.12782 78.9327328,192.273969 82.2172811,194.213123 C85.5018294,196.152277 88.7910494,196.889953 92.0849413,196.426151 Z" id="Combined-Shape" fill="#1D141D"></path>
                <path d="M78.3352786,164.148907 C82.5311451,158.628684 90.8603747,153.490427 103.322968,148.734138 L159.036599,131.960109 C170.412438,129.108673 179.011998,130.605699 184.835279,136.451186 C189.700837,141.335298 191.790116,150.567872 191.103116,164.148907 L191.103116,176.122835 L176.619982,185.326735 L176.619982,228.006853 L191.103116,231.246436 L191.103116,239.740487 C191.739478,253.352903 189.650199,263.860636 184.835279,271.263686 C178.945661,280.31911 170.330402,286.26985 158.989502,289.115907 L108.495138,305.884754 C95.0552316,310.285908 85.0019452,310.141385 78.3352786,305.451186 C72.2280715,301.154584 68.9420401,291.147417 68.4771844,275.429684 L68.4771844,195.451186 C68.5417538,183.144478 71.8277852,172.710385 78.3352786,164.148907 Z" id="Rectangle" fill="#9296C7" fill-rule="nonzero" transform="translate(129.853900, 219.819222) scale(-1, 1) translate(-129.853900, -219.819222) "></path>
                <path d="M176.636052,208.11323 L176.636052,228.006853 L191.119186,231.246436 L191.119186,239.740487 C191.755548,253.352903 189.666269,263.860636 184.851349,271.263686 C178.96173,280.31911 170.346472,286.26985 159.005572,289.115907 L108.511208,305.884754 C95.0713014,310.285908 85.018015,310.141385 78.3513483,305.451186 C72.2441413,301.154584 68.9581099,291.147417 68.4932541,275.429684 L68.4932541,235.951186 L176.636052,208.11323 Z" id="Rectangle" fill="#E99135" fill-rule="nonzero" transform="translate(129.861935, 258.596952) scale(-1, 1) translate(-129.861935, -258.596952) "></path>
                <polygon id="Rectangle" fill="#C8AB5A" fill-rule="nonzero" points="212.204623 232.689332 307.349621 204.441203 307.349621 211.519052 212.204623 239.176602"></polygon>
                <polygon id="Rectangle" fill="#C8AB5A" fill-rule="nonzero" transform="translate(129.777122, 222.808903) scale(-1, 1) translate(-129.777122, -222.808903) " points="82.2046229 233.689332 177.349621 205.441203 177.349621 212.519052 82.2046229 240.176602"></polygon>
                <g id="Group-2" transform="translate(228.930813, 175.141705)">
                    <ellipse id="Oval" stroke="#000000" fill="#0085CA" fill-rule="nonzero" transform="translate(33.418808, 43.809481) rotate(9.000000) translate(-33.418808, -43.809481) " cx="33.418808" cy="43.8094814" rx="27.5" ry="40"></ellipse>
                    <g id="Group" transform="translate(23.912766, 26.502720)" stroke="#FFFFFF" stroke-width="3">
                        <path d="M19.6610974,0.190368229 C20.3524012,0.108181329 20.8541769,-0.193468321 21.1710744,0.190368229 C21.4044219,0.473006229 20.9401893,3.47577614 20.7522549,4.08388422 L10.3722196,36.6740546 L0.193328684,10.2352099 C-0.0338562065,9.2825289 -0.0807813365,8.4823199 0.160658154,7.84771445 C0.379117234,7.27351126 0.798716404,6.84785691 1.38575554,6.54092022 L19.6610974,0.190368229 Z" id="Rectangle"></path>
                        <line x1="11.0060412" y1="5.30676187" x2="10.5060412" y2="35.5321775" id="Line" stroke-linecap="square"></line>
                    </g>
                </g>
                <g id="Group-3" transform="translate(208.628901, 137.842572)" fill="#7D7D99" fill-rule="nonzero" stroke="#6B657D">
                    <rect id="Rectangle" transform="translate(9.720721, 35.608614) rotate(47.000000) translate(-9.720721, -35.608614) " x="-0.779279264" y="32.108614" width="21" height="7" rx="3.5"></rect>
                    <rect id="Rectangle" transform="translate(94.720721, 10.608614) scale(-1, 1) rotate(55.000000) translate(-94.720721, -10.608614) " x="84.2207213" y="7.10861399" width="21" height="7" rx="3.5"></rect>
                </g>
                <g id="Group-3" transform="translate(127.539951, 160.738278) scale(-1, 1) translate(-127.539951, -160.738278) translate(75.622450, 137.959161)" fill="#7D7D99" fill-rule="nonzero" stroke="#6B657D">
                    <rect id="Rectangle" transform="translate(9.720721, 35.492025) rotate(47.000000) translate(-9.720721, -35.492025) " x="-0.779279264" y="31.9920254" width="21" height="7" rx="3.5"></rect>
                    <rect id="Rectangle" transform="translate(94.720721, 10.492025) scale(-1, 1) rotate(53.000000) translate(-94.720721, -10.492025) " x="84.2207206" y="6.99202544" width="21" height="7" rx="3.5"></rect>
                </g>
                <g id="Group-4" transform="translate(208.235338, 258.087226)" fill="#A65916" fill-rule="nonzero" stroke="#933C00">
                    <rect id="Rectangle" transform="translate(9.114282, 38.363961) scale(-1, 1) rotate(53.000000) translate(-9.114282, -38.363961) " x="-1.38571797" y="34.8639611" width="21" height="7" rx="3.5"></rect>
                    <rect id="Rectangle" transform="translate(95.882050, 8.131728) rotate(45.000000) translate(-95.882050, -8.131728) " x="87.8820497" y="4.63172798" width="16" height="7" rx="3.5"></rect>
                </g>
                <g id="Group-4" transform="translate(125.249110, 274.515219) scale(-1, 1) translate(-125.249110, -274.515219) translate(73.242222, 250.087226)" fill="#A65916" fill-rule="nonzero" stroke="#933C00">
                    <rect id="Rectangle" transform="translate(9.114282, 38.363961) scale(-1, 1) rotate(53.000000) translate(-9.114282, -38.363961) " x="-1.38571797" y="34.8639611" width="21" height="7" rx="3.5"></rect>
                    <rect id="Rectangle" transform="translate(95.882050, 8.131728) rotate(45.000000) translate(-95.882050, -8.131728) " x="87.8820497" y="4.63172798" width="16" height="7" rx="3.5"></rect>
                </g>
                <ellipse id="Oval" stroke="#575757" stroke-width="2.1" fill="#7F7F7F" fill-rule="nonzero" opacity="0.628208705" transform="translate(127.849621, 220.451186) scale(-1, 1) rotate(9.000000) translate(-127.849621, -220.451186) " cx="127.849621" cy="220.451186" rx="19.45" ry="27.95"></ellipse>
                <ellipse id="Oval" fill="#C00005" fill-rule="nonzero" transform="translate(190.849621, 117.951186) rotate(90.000000) translate(-190.849621, -117.951186) " cx="190.849621" cy="117.951186" rx="20" ry="49"></ellipse>
                <ellipse id="Oval" fill="#D1595C" fill-rule="nonzero" transform="translate(191.849621, 117.451186) rotate(90.000000) translate(-191.849621, -117.451186) " cx="191.849621" cy="117.451186" rx="13.5" ry="40"></ellipse>
                <path d="M175.349621,209.076283 C181.32891,205.326219 187.495576,203.451186 193.849621,203.451186 C200.203666,203.451186 207.133008,205.326219 214.637645,209.076283 L214.637645,259.060908 C206.392682,265.321093 199.463341,268.451186 193.849621,268.451186 C188.235902,268.451186 182.069235,265.321093 175.349621,259.060908 L175.349621,209.076283 Z" id="Rectangle" fill="#4C3D49" fill-rule="nonzero"></path>
                <g id="Group-4" transform="translate(239.068285, 132.786171)" fill-rule="nonzero">
                    <path d="M0.781335427,5.05640086 L18.5347506,0.771599407 C22.5324738,2.28938491 26.3647115,3.75651515 30.0314637,5.17299011 C31.4166767,7.65978882 31.4166767,14.6933351 30.0314637,26.2736288 C28.1980448,29.1570808 25.3094798,30.8049055 21.3657684,31.2171031 C17.4220571,31.6293007 14.891899,31.4232019 13.7752942,30.5988067 C15.2067179,19.1413455 15.2067179,12.3066069 13.7752942,10.0945909 C12.1556205,7.59166733 7.82430089,5.91227064 0.781335427,5.05640086 Z" id="Rectangle" fill="#4C3D49" transform="translate(15.925854, 16.097401) rotate(-3.000000) translate(-15.925854, -16.097401) "></path>
                    <path d="M9.80799431,5.39607098 L19.7675583,2.90939966 C22.6712461,4.09781557 25.454736,5.24656874 28.1180278,6.35565917 C29.124157,8.30280595 29.124157,13.8100257 28.1180278,22.8773183 C26.7863508,25.1350419 24.6882838,26.4252777 21.8238267,26.7480257 C18.9593696,27.0707736 17.1216263,26.9093997 16.3105967,26.2639037 C17.3502904,17.2927881 17.3502904,11.9412334 16.3105967,10.2092397 C15.7749777,9.31696852 15.5527657,7.27335416 14.200597,6.64841332 C13.1221194,6.14996614 11.6579185,5.73251869 9.80799431,5.39607098 Z" id="Rectangle" fill="#616161" transform="translate(19.340310, 14.909400) rotate(-3.000000) translate(-19.340310, -14.909400) "></path>
                </g>
            </g>
            <ellipse id="Oval" stroke="#979797" cx="210.349621" cy="90.4511861" rx="11.5" ry="3.5"></ellipse>
            <g id="Group-3" transform="translate(175.349621, 219.451186)" fill="#1D141D">
                <path d="M0,0 C6.50923221,2.40847253 13.0092322,3.6127088 19.5,3.6127088 C25.9907678,3.6127088 32.4907678,2.40847253 39,0 L39,4 C32.0249221,6.32470138 25.5249221,7.48705207 19.5,7.48705207 C13.4750779,7.48705207 6.97507786,6.32470138 0,4 L0,0 Z" id="Rectangle"></path>
                <path d="M0,13 C6.50923221,15.4084725 13.0092322,16.6127088 19.5,16.6127088 C25.9907678,16.6127088 32.4907678,15.4084725 39,13 L39,17 C32.0249221,19.3247014 25.5249221,20.4870521 19.5,20.4870521 C13.4750779,20.4870521 6.97507786,19.3247014 0,17 L0,13 Z" id="Rectangle"></path>
                <path d="M0,26 C6.50923221,28.4084725 13.0092322,29.6127088 19.5,29.6127088 C25.9907678,29.6127088 32.4907678,28.4084725 39,26 L39,30 C32.0249221,32.3247014 25.5249221,33.4870521 19.5,33.4870521 C13.4750779,33.4870521 6.97507786,32.3247014 0,30 L0,26 Z" id="Rectangle"></path>
            </g>
            <g id="Group-3" transform="translate(276.349621, 191.451186)"></g>
            <polygon id="Rectangle" fill="#C00005" fill-rule="nonzero" points="154.849621 125.451186 218.349622 103.951186 228.070342 107.451186 164.82519 130.557771"></polygon>
            <g id="Group-2" transform="translate(266.349621, 107.451186)">
                <path d="M0,4 L22,4 L22,12.9375 C22,15.1811568 17.0751322,17 11,17 C4.92486775,17 0,15.1811568 0,12.9375 L0,12.9375 L0,4 Z" id="Combined-Shape" fill="#C11416"></path>
                <ellipse id="Oval" fill="#B48D95" cx="11" cy="4" rx="11" ry="4"></ellipse>
            </g>
            <ellipse id="Oval" fill="#A1A1A1" cx="258.349621" cy="138.951186" rx="4" ry="1.5"></ellipse>
        </g>
    </g>
</svg>